<?xml version="1.0" standalone="no"?>
<!DOCTYPE svg PUBLIC "-//W3C//DTD SVG 20010904//EN"
 "http://www.w3.org/TR/2001/REC-SVG-20010904/DTD/svg10.dtd">
<svg version="1.0" xmlns="http://www.w3.org/2000/svg"
 width="2184.000000pt" height="2184.000000pt" viewBox="0 0 2184.000000 2184.000000"
 preserveAspectRatio="xMidYMid meet">
<metadata>
Created by potrace 1.11, written by Peter Selinger 2001-2013
</metadata>
<g transform="translate(0.000000,2184.000000) scale(0.100000,-0.100000)"
fill="#000000" stroke="none">
<path d="M2744 15663 c-1495 -2590 -2723 -4717 -2730 -4728 -12 -18 78 -177
899 -1600 502 -869 916 -1585 920 -1592 4 -7 452 654 1130 1668 617 923 1422
2128 1789 2678 l668 998 -49 104 c-84 179 -141 361 -178 574 -24 140 -24 500
0 640 40 227 96 403 192 600 300 617 887 1041 1577 1140 152 21 424 21 577 0
952 -134 1672 -879 1782 -1845 11 -100 7 -430 -6 -490 -5 -22 239 -321 1818
-2235 1362 -1651 1828 -2210 1843 -2208 10 1 57 17 104 37 124 51 258 85 395
98 66 6 125 16 131 22 6 6 316 894 688 1972 l677 1962 -48 63 c-58 77 -99 166
-118 256 -18 86 -18 140 0 227 l15 70 -326 434 c-179 238 -327 439 -330 445
-5 14 549 1100 564 1105 13 4 293 -168 299 -183 2 -6 -107 -204 -243 -440
-136 -236 -249 -437 -251 -447 -3 -10 76 -153 192 -350 109 -183 201 -337 205
-342 5 -4 37 14 72 41 120 92 271 140 404 129 197 -16 365 -117 463 -279 15
-25 27 -35 35 -29 32 24 924 757 939 771 17 17 15 37 -39 495 -31 262 -55 479
-52 481 6 6 249 58 252 53 2 -1 37 -138 79 -303 42 -165 108 -420 146 -568
l69 -267 -672 -466 -671 -465 -7 -57 c-19 -144 -73 -257 -168 -352 -70 -70
-173 -129 -265 -151 -27 -6 -53 -15 -57 -18 -4 -4 -190 -962 -412 -2130 l-405
-2124 43 -51 c137 -163 242 -386 293 -626 28 -131 25 -401 -5 -539 -62 -278
-183 -505 -369 -694 -543 -550 -1429 -554 -1974 -8 -199 198 -318 421 -381
709 -16 76 -21 134 -22 266 l-1 170 -2035 1895 c-1119 1043 -2056 1915 -2082
1939 l-48 44 -137 -45 c-76 -25 -194 -57 -263 -71 -130 -26 -376 -50 -468 -44
l-54 3 -1334 -4120 c-734 -2266 -1361 -4205 -1395 -4310 l-61 -190 555 -960
555 -960 5462 0 5462 0 2715 4700 c1493 2585 2720 4711 2728 4726 13 24 -88
201 -2715 4750 l-2728 4724 -5460 3 -5460 2 -2718 -4707z"/>
<path d="M6979 15660 c-344 -62 -632 -219 -885 -482 -212 -221 -361 -511 -420
-818 -25 -133 -25 -419 0 -550 42 -216 127 -425 250 -610 92 -139 302 -350
436 -439 176 -117 381 -204 590 -248 131 -28 489 -25 622 4 146 33 240 67 383
138 572 285 918 865 892 1495 -17 435 -211 838 -543 1132 -203 179 -437 299
-714 365 -148 35 -453 42 -611 13z"/>
<path d="M15319 14220 c-104 -18 -206 -98 -253 -200 -53 -114 -27 -260 62
-354 143 -148 341 -149 481 -1 71 75 95 131 95 225 1 99 -31 167 -114 243 -79
74 -172 104 -271 87z"/>
<path d="M13433 9125 c-251 -45 -484 -192 -642 -405 -220 -295 -261 -690 -107
-1016 59 -125 115 -204 210 -300 394 -393 997 -406 1405 -28 359 332 434 847
185 1266 -67 113 -239 285 -352 352 -210 125 -467 173 -699 131z"/>
</g>
</svg>
