<?xml version="1.0" encoding="UTF-8" standalone="no"?>
<svg
   xmlns:dc="http://purl.org/dc/elements/1.1/"
   xmlns:cc="http://creativecommons.org/ns#"
   xmlns:rdf="http://www.w3.org/1999/02/22-rdf-syntax-ns#"
   xmlns:svg="http://www.w3.org/2000/svg"
   xmlns="http://www.w3.org/2000/svg"
   xmlns:sodipodi="http://sodipodi.sourceforge.net/DTD/sodipodi-0.dtd"
   xmlns:inkscape="http://www.inkscape.org/namespaces/inkscape"
   height="32"
   id="svg7727"
   version="1.1"
   viewBox="0 0 32 32"
   width="32"
   inkscape:version="0.91 r13725"
   sodipodi:docname="balloon.svg"
   enable-background="new">
  <metadata
     id="metadata42">
    <rdf:RDF>
      <cc:Work
         rdf:about="">
        <dc:format>image/svg+xml</dc:format>
        <dc:type
           rdf:resource="http://purl.org/dc/dcmitype/StillImage" />
      </cc:Work>
    </rdf:RDF>
  </metadata>
  <sodipodi:namedview
     pagecolor="#ffffff"
     bordercolor="#666666"
     borderopacity="1"
     objecttolerance="10"
     gridtolerance="10"
     guidetolerance="10"
     inkscape:pageopacity="0"
     inkscape:pageshadow="2"
     inkscape:window-width="1600"
     inkscape:window-height="837"
     id="namedview40"
     showgrid="false"
     inkscape:zoom="7.375"
     inkscape:cx="16"
     inkscape:cy="16"
     inkscape:window-x="-8"
     inkscape:window-y="-8"
     inkscape:window-maximized="1"
     inkscape:current-layer="layer2" />
  <defs
     id="defs7729">
    <pattern
       height="6"
       id="EMFhbasepattern"
       patternUnits="userSpaceOnUse"
       width="6"
       x="0"
       y="0" />
    <pattern
       height="6"
       id="EMFhbasepattern-6"
       patternUnits="userSpaceOnUse"
       width="6"
       x="0"
       y="0" />
    <pattern
       height="6"
       id="EMFhbasepattern-9"
       patternUnits="userSpaceOnUse"
       width="6"
       x="0"
       y="0" />
    <pattern
       height="6"
       id="EMFhbasepattern-0"
       patternUnits="userSpaceOnUse"
       width="6"
       x="0"
       y="0" />
    <pattern
       height="6"
       id="EMFhbasepattern-1"
       patternUnits="userSpaceOnUse"
       width="6"
       x="0"
       y="0" />
    <pattern
       height="6"
       id="EMFhbasepattern-2"
       patternUnits="userSpaceOnUse"
       width="6"
       x="0"
       y="0" />
    <pattern
       height="6"
       id="EMFhbasepattern-5"
       patternUnits="userSpaceOnUse"
       width="6"
       x="0"
       y="0" />
    <pattern
       height="6"
       id="EMFhbasepattern-19"
       patternUnits="userSpaceOnUse"
       width="6"
       x="0"
       y="0" />
    <pattern
       height="6"
       id="EMFhbasepattern-17"
       patternUnits="userSpaceOnUse"
       width="6"
       x="0"
       y="0" />
    <pattern
       height="6"
       id="EMFhbasepattern-8"
       patternUnits="userSpaceOnUse"
       width="6"
       x="0"
       y="0" />
    <pattern
       height="6"
       id="EMFhbasepattern-22"
       patternUnits="userSpaceOnUse"
       width="6"
       x="0"
       y="0" />
    <pattern
       height="6"
       id="EMFhbasepattern-60"
       patternUnits="userSpaceOnUse"
       width="6"
       x="0"
       y="0" />
    <pattern
       height="6"
       id="EMFhbasepattern-54"
       patternUnits="userSpaceOnUse"
       width="6"
       x="0"
       y="0" />
    <pattern
       height="6"
       id="EMFhbasepattern-4"
       patternUnits="userSpaceOnUse"
       width="6"
       x="0"
       y="0" />
    <pattern
       height="6"
       id="EMFhbasepattern-48"
       patternUnits="userSpaceOnUse"
       width="6"
       x="0"
       y="0" />
    <pattern
       height="6"
       id="EMFhbasepattern-04"
       patternUnits="userSpaceOnUse"
       width="6"
       x="0"
       y="0" />
    <pattern
       height="6"
       id="EMFhbasepattern-14"
       patternUnits="userSpaceOnUse"
       width="6"
       x="0"
       y="0" />
    <pattern
       height="6"
       id="EMFhbasepattern-18"
       patternUnits="userSpaceOnUse"
       width="6"
       x="0"
       y="0" />
    <pattern
       height="6"
       id="EMFhbasepattern-50"
       patternUnits="userSpaceOnUse"
       width="6"
       x="0"
       y="0" />
    <pattern
       height="6"
       id="EMFhbasepattern-91"
       patternUnits="userSpaceOnUse"
       width="6"
       x="0"
       y="0" />
    <pattern
       height="6"
       id="EMFhbasepattern-05"
       patternUnits="userSpaceOnUse"
       width="6"
       x="0"
       y="0" />
    <pattern
       height="6"
       id="EMFhbasepattern-57"
       patternUnits="userSpaceOnUse"
       width="6"
       x="0"
       y="0" />
    <pattern
       height="6"
       id="EMFhbasepattern-59"
       patternUnits="userSpaceOnUse"
       width="6"
       x="0"
       y="0" />
    <pattern
       height="6"
       id="EMFhbasepattern-11"
       patternUnits="userSpaceOnUse"
       width="6"
       x="0"
       y="0" />
    <pattern
       height="6"
       id="EMFhbasepattern-7"
       patternUnits="userSpaceOnUse"
       width="6"
       x="0"
       y="0" />
    <pattern
       height="6"
       id="EMFhbasepattern-96"
       patternUnits="userSpaceOnUse"
       width="6"
       x="0"
       y="0" />
    <pattern
       height="6"
       id="EMFhbasepattern-95"
       patternUnits="userSpaceOnUse"
       width="6"
       x="0"
       y="0" />
  </defs>
  <g
     id="layer1"
     transform="translate(0,-1020.3622)"
     style="fill:#1e4845;fill-opacity:0;stroke:#1e4845;stroke-opacity:1">
    <path
       d="m 15.838103,1036.5877 a 6.9997147,7.7481953 0 0 1 -7.0807335,4.4141 6.9997147,7.7481953 0 0 1 -6.0786289,-5.9701 6.9997147,7.7481953 0 0 1 3.1164396,-8.3076 6.9997147,7.7481953 0 0 1 8.1110748,0.5522"
       id="path7188"
       style="opacity:1;fill:#1e4845;fill-opacity:0;stroke:#1e4845;stroke-width:1;stroke-linecap:round;stroke-linejoin:round;stroke-miterlimit:4;stroke-dasharray:none;stroke-opacity:1" />
    <path
       d="m 10.500824,1041.0457 -1.4999394,2.4994 2.9998774,0 z"
       id="path7190"
       style="fill:#1e4845;fill-rule:evenodd;stroke:#1e4845;stroke-width:1px;stroke-linecap:butt;stroke-linejoin:round;stroke-opacity:1;fill-opacity:0" />
    <path
       d="m 10.125709,1050.8554 c -0.2441792,-0.8545 -0.2244371,-1.7628 0.05664,-2.6059 l 0.175768,-0.5272 c 0.259108,-0.7771 0.357624,-1.5988 0.289573,-2.4152 l -0.146861,-1.762"
       id="path7192"
       style="fill:#1e4845;fill-rule:evenodd;stroke:#1e4845;stroke-width:1px;stroke-linecap:round;stroke-linejoin:round;stroke-opacity:1;fill-opacity:0" />
    <path
       d="m 4.5893365,1033.2975 c -8.2e-6,-3.0026 2.1989596,-5.4367 4.9115268,-5.4367"
       id="path7194"
       style="opacity:1;fill:#1e4845;fill-opacity:0;stroke:#1e4845;stroke-width:1;stroke-linecap:round;stroke-linejoin:round;stroke-miterlimit:4;stroke-dasharray:none;stroke-opacity:1" />
    <path
       d="m 21.500375,1038.8582 -1.499939,2.4994 2.999878,0 z"
       id="path7198"
       style="fill:#1e4845;fill-rule:evenodd;stroke:#1e4845;stroke-width:1px;stroke-linecap:butt;stroke-linejoin:round;stroke-opacity:1;fill-opacity:0" />
    <path
       d="m 21.750365,1050.8554 -0.625105,-2.1875 a 4.4106442,4.4097969 0 0 1 0.05664,-2.6059 l 0.175768,-0.5272 a 6.0500988,6.0489365 0 0 0 0.289572,-2.4152 l -0.146861,-1.762"
       id="path7200"
       style="fill:#1e4845;fill-rule:evenodd;stroke:#1e4845;stroke-width:1px;stroke-linecap:round;stroke-linejoin:round;stroke-opacity:1;fill-opacity:0" />
    <path
       d="m 29.500048,1030.1102 a 7.9996739,8.7479624 0 0 1 -7.999674,8.748 7.9996739,8.7479624 0 0 1 -7.999674,-8.748 7.9996739,8.7479624 0 0 1 7.999674,-8.7479 7.9996739,8.7479624 0 0 1 7.999674,8.7479 z"
       id="ellipse7202"
       style="opacity:1;fill:#1e4845;fill-opacity:0;stroke:#1e4845;stroke-width:1;stroke-linecap:round;stroke-linejoin:round;stroke-miterlimit:4;stroke-dasharray:none;stroke-opacity:1" />
    <path
       d="m 21.500374,1023.8617 c 3.155783,0 5.714046,2.7975 5.714038,6.2485"
       id="path7204"
       style="opacity:1;fill:#1e4845;fill-opacity:0;stroke:#1e4845;stroke-width:0.99999988;stroke-linecap:round;stroke-linejoin:round;stroke-miterlimit:4;stroke-dasharray:none;stroke-opacity:1" />
  </g>
  <path
     style="opacity:1;fill:#1e4845;fill-opacity:0;stroke:none;stroke-width:1.35399997;stroke-linecap:butt;stroke-miterlimit:4;stroke-dasharray:none;stroke-dashoffset:0;stroke-opacity:1"
     d="M 19.882587,17.827904 C 18.64339,17.513752 17.516226,16.84571 16.46221,15.800732 14.189616,13.547624 13.395196,10.084641 14.438171,6.9776738 14.929767,5.5132334 15.552308,4.5383375 16.667876,3.4859676 18.228733,2.0135342 19.878494,1.401504 21.949998,1.5264001 c 1.434971,0.086518 2.377536,0.4268598 3.642576,1.3152634 1.591326,1.1175442 2.794877,2.9970949 3.223296,5.0337257 0.872465,4.1475578 -1.297463,8.3593948 -5.01926,9.7423968 -1.056165,0.392465 -2.821018,0.487209 -3.914023,0.210118 z M 27.634073,9.5426427 C 27.688523,8.797538 27.341572,7.3497722 26.899496,6.4773771 26.376779,5.4458443 25.058622,4.1338941 24.071668,3.6628644 22.673838,2.9957417 21.011962,2.868152 21.019025,3.4284995 c 0.0043,0.3413366 0.223326,0.4697217 0.954725,0.5596335 0.868403,0.1067538 1.96655,0.5801672 2.708048,1.1674442 1.02659,0.8130742 2.030066,2.8147195 2.030066,4.0493946 0,0.7856918 0.112241,0.9859152 0.525797,0.9379562 0.311542,-0.03613 0.360617,-0.110443 0.396412,-0.6002853 z"
     id="path4192"
     inkscape:connector-curvature="0" />
  <g
     inkscape:groupmode="layer"
     id="layer2"
     inkscape:label="Layer 1" />
</svg>
