<svg width="300" height="300" viewBox="0 0 300 300" fill="none" xmlns="http://www.w3.org/2000/svg">
<path fill-rule="evenodd" clip-rule="evenodd" d="M300 150C300 232.843 232.843 300 150 300C147.329 300 144.674 299.93 142.037 299.792C141.38 299.928 140.698 300 140 300H24.1421C15.2331 300 10.7714 289.229 17.0711 282.929L43.934 256.066C16.7893 228.921 0 191.421 0 150C0 67.1573 67.1573 0 150 0C232.843 0 300 67.1573 300 150ZM75 117C75 111.477 79.4771 107 85 107H112V103C112 93.0589 120.059 85 130 85H170C179.941 85 188 93.0589 188 103V107H215C220.523 107 225 111.477 225 117V197C225 202.523 220.523 207 215 207H85C79.4771 207 75 202.523 75 197V117ZM180 107V103C180 97.4771 175.523 93 170 93H130C124.477 93 120 97.4771 120 103V107H180Z" fill="black"/>
</svg>
