<svg id="Layer_1" data-name="Layer 1" xmlns="http://www.w3.org/2000/svg" viewBox="0 0 390 268"><defs><style>.cls-1{fill:#f5f5f6;}.cls-2{fill:#14403c;}</style></defs><title>iphonebakgrunn1Artboard 1</title><path class="cls-1" d="M319,224c-2.42-11.55-9.23-12.83-11.73-24.32-.68-3.07-1.8-8.54.51-14.49,2.15-5.53,6.12-8.55,9.84-11.38,5.6-4.27,12.55-9.57,19.15-7.77,5.1,1.4,5.1,5.71,13.45,15s10.9,7.78,14,12.94c6.74,11.33-.39,27.15-5.18,37.78-5.23,11.61-11.76,26.09-21.22,25.88-8.37-.19-16-11.79-18.11-21.22C318.4,230.5,320.38,230.39,319,224Z"/><path class="cls-1" d="M46,105.71c-9.14-1.83-14-10.21-15.53-12.93-1.3-2.26-3.27-6.34-4.14-27.43-.81-19.76.65-22.79,2.07-24.85,4.11-6,12.19-10.09,19.67-9.31,6.31.66,6.67,4.22,24.84,19.66,7.91,6.73,10.12,8,11.39,11.91,2.37,7.33-1.55,14.55-5.18,21.22-2.64,4.85-7.74,14.24-18.63,19.15C57,104.69,52.06,106.93,46,105.71Z"/><path class="cls-2" d="M28.51,68.18c-.59,0-9.79-.27-14.75-7C10.45,56.72,11,50.9,12.21,39.46c1-9.81,1.56-14.72,3.88-18.63,4.73-8,15.8-16.2,26.4-13.2,9.32,2.64,13.25,12.54,14.75,16.3A32,32,0,0,1,58,45.67c-4,12-14.21,17.17-18.63,19.41C36.29,66.65,33,68.25,28.51,68.18Z"/><path class="cls-2" d="M261.31,228c1.26-9.28,2.2-16.24,7.77-20.7,6.42-5.15,11.43-.91,26.91-5.69,9.1-2.82,9.64-5,18.11-6.73,6.75-1.39,13.32-2.74,19.67,0,11,4.75,18.17,20.42,14,30-3.76,8.6-13.15,4.32-30.53,15.53-14.85,9.57-16.74,18.33-31.57,22.77-5.36,1.6-11.35,3.4-16.56.51C257.35,257.2,260.61,233.17,261.31,228Z"/></svg>