<svg width="273" height="272" viewBox="0 0 273 272" fill="none" xmlns="http://www.w3.org/2000/svg">
<path d="M23.2891 112.085C23.2891 50.182 73.4711 0 135.374 0C197.275 0 247.458 50.182 247.458 112.085C247.458 173.988 197.275 224.167 135.374 224.167C73.4711 224.167 23.2891 173.988 23.2891 112.085Z" fill="#E24747"/>
<path d="M104.045 86.3849L103.931 86.3729L98.8272 118.98L109.534 120.103L104.045 86.3849ZM96.0332 137.418C95.4852 141.343 94.8182 144.319 94.8312 146.427C94.8542 149.943 97.2662 150.782 99.1542 150.98L99.7852 151.044L99.8072 154.56C97.5162 154.085 95.1662 153.606 92.8742 153.365C90.8162 153.149 88.7562 153.166 86.6952 153.187L86.6722 149.669L87.0132 149.709C89.2462 149.939 91.1162 147.446 91.9432 142.611L100.75 89.7889C101.466 85.5299 102.458 79.7789 102.769 75.4779C104.593 74.3809 106.867 72.2769 107.945 70.9839C108.118 70.8859 108.232 70.7809 108.403 70.7989C108.575 70.8179 108.689 70.8289 108.808 71.1939C108.985 72.1459 109.164 73.2209 109.342 74.1769L120.284 136.563C120.998 140.736 121.718 145.145 122.482 148.737C123.194 152.093 124.405 153.626 126.294 153.824L126.638 153.857L126.659 157.375C124.081 156.868 121.504 156.368 118.754 156.076C115.952 155.783 113.088 155.718 110.17 155.648L110.147 152.13L110.775 152.197C112.094 152.336 114.322 152.1 114.303 149.171C114.294 147.647 113.757 144.428 113.102 140.612L110.777 126.787L97.7842 125.427L96.0332 137.418Z" fill="#F9F2EA"/>
<path d="M47.7678 145.067V142.027C47.7678 142.027 50.4848 143.466 51.4478 141.067C52.4048 138.67 51.4478 93.733 51.4478 93.733C51.4478 93.733 52.2458 86.695 50.8058 86.376C49.3648 86.056 47.2858 86.056 47.2858 86.056L46.9648 83.656L65.0388 79.657L65.1978 82.378C65.1978 82.378 60.2428 82.537 60.0828 87.976C59.9218 93.413 60.0828 111.647 60.0828 111.647C60.0828 111.647 72.2368 89.254 72.5578 86.376C72.8758 83.498 72.8758 82.537 72.8758 82.537L69.3608 82.058L69.1958 78.858L84.3918 75.821L84.0748 79.818C84.0748 79.818 81.9928 77.099 75.1158 90.694C68.2398 104.287 66.3188 108.127 66.7998 109.408C67.2818 110.686 81.1928 143.466 81.1928 143.466C81.1928 143.466 83.5938 148.107 85.0308 148.587C86.4698 149.063 86.3148 149.063 86.3148 149.063V152.427L74.4748 150.665L61.5228 118.524C61.5228 118.524 60.3988 117.083 60.2428 119.004C60.0828 120.924 60.2428 138.829 60.2428 138.829C60.2428 138.829 59.4448 142.507 61.5228 143.788C63.6008 145.067 65.5208 145.389 65.5208 145.389V148.426L47.7678 145.067Z" fill="#F9F2EA"/>
<path d="M126.619 71.982L126.458 76.139C126.458 76.139 131.095 73.102 131.256 85.097C131.418 97.093 131.256 147.787 131.256 147.787C131.256 147.787 130.936 152.427 129.338 152.744C127.737 153.063 127.417 153.545 127.417 153.545L127.578 157.224L146.289 157.063L146.128 153.063C146.128 153.063 140.211 154.024 140.211 147.627V115.645H147.087C147.087 115.645 149.809 116.607 150.289 120.924C150.768 125.24 150.768 126.838 150.768 126.838H153.008V98.691H150.768C150.768 98.691 151.888 107.971 146.93 108.127C141.97 108.288 140.692 108.127 140.692 108.127H139.894V78.219H148.688C148.688 78.219 152.53 79.02 153.008 84.454C153.487 89.896 153.008 91.653 153.008 91.653H155.565V72.302L126.619 71.982Z" fill="#F9F2EA"/>
<path d="M157.808 73.1022L157.647 76.4602C157.647 76.4602 162.763 75.0202 162.763 84.4542V145.547C162.763 145.547 163.083 150.986 160.529 150.986C157.966 150.986 158.287 151.786 158.287 151.786V154.984L177.321 152.744L177.64 148.906C177.64 148.906 171.721 151.464 171.401 141.23C171.08 130.997 171.401 115.486 171.401 115.486L178.918 115.167C178.918 115.167 180.358 115.167 181.158 119.645C181.956 124.12 181.798 124.92 181.798 124.92L184.516 125.24V99.8112H181.478C181.478 99.8112 182.756 108.288 178.12 108.288C173.481 108.288 171.563 108.127 171.563 108.127V80.6202C171.563 80.6202 176.679 79.1812 179.4 80.4572C182.121 81.7382 183.878 83.9782 184.198 87.3352C184.516 90.6942 184.198 92.9342 184.198 92.9342H187.557V75.9802L158.125 72.4602L157.808 73.1022Z" fill="#F9F2EA"/>
<path d="M189.315 76.9396V79.6596C189.315 79.6596 193.794 78.3806 193.954 85.7356C194.115 93.0936 193.954 140.589 193.954 140.589C193.954 140.589 194.436 145.068 192.995 145.706C191.555 146.347 189.475 146.667 189.475 146.667L189.636 150.507L220.664 143.791L221.943 128.277H220.026C220.026 128.277 218.585 138.51 215.227 139.79C211.866 141.07 202.912 144.59 202.912 137.87V115.969C202.912 115.969 202.59 113.568 206.588 113.727C210.588 113.887 211.228 114.846 211.866 117.084C212.509 119.324 212.831 122.681 212.831 122.681L215.065 121.566V100.293L212.509 101.092C212.509 101.092 212.985 107.17 209.949 107.971C206.91 108.771 202.912 107.971 202.912 107.971C202.912 107.971 201.95 108.929 201.95 100.452V83.6566C201.95 83.6566 209.949 83.4976 211.707 84.9366C213.467 86.3766 215.385 90.0546 215.544 92.6146C215.709 95.1746 215.709 95.8126 215.709 95.8126L217.786 94.6946L218.106 81.2576L189.315 76.9396Z" fill="#F9F2EA"/>
<path d="M29.691 178.351L34.134 183.771L21.708 193.96L21.778 194.044L37.894 188.357L41.865 193.195L28.581 197.321L12.857 218.375L8.582 213.161L19.421 199.251L19.354 199.17L13.077 201.04L4.442 208.119L0 202.695L29.691 178.351Z" fill="#231F20"/>
<path d="M46.8079 205.579L46.7249 205.511L33.0439 217.914L36.3429 220.774L46.8079 205.579ZM47.3079 198.17L54.9659 204.809L33.4019 236.92L28.3089 232.51L33.1169 225.399L28.8409 221.688L22.5269 227.49L18.0859 223.639L47.3079 198.17Z" fill="#231F20"/>
<path d="M61.0356 209.429L74.3076 217.797L71.1456 222.814L63.7996 218.185L58.3366 226.851L63.7636 230.274L60.4276 235.565L55.0006 232.143L46.4856 245.648L40.5566 241.908L61.0356 209.429Z" fill="#231F20"/>
<path d="M76.7448 218.912L91.0748 225.308L88.6538 230.726L80.7278 227.184L76.5538 236.543L82.4098 239.16L79.8648 244.871L73.9998 242.254L67.4948 256.828L61.0918 253.974L76.7448 218.912Z" fill="#231F20"/>
<path d="M93.5832 226.075L108.848 230.346L107.254 236.058L98.7362 233.675L96.0932 243.131L102.38 244.888L100.692 250.908L94.4082 249.153L91.5912 259.228L100.472 261.711L98.8762 267.426L83.2422 263.054L93.5832 226.075Z" fill="#231F20"/>
<path d="M112.075 231.013L119.043 231.767L117.304 247.744L117.413 247.755L124.939 232.411L131.158 233.087L124.569 245.335L128.081 271.373L121.38 270.644L119.38 253.124L119.271 253.112L116.099 258.84L114.894 269.938L107.922 269.18L112.075 231.013Z" fill="#231F20"/>
<path d="M134.725 233.111L141.56 232.652L149.315 252.453L149.429 252.443L148.069 232.213L153.664 231.837L156.235 270.148L150.799 270.511L141.765 247.824L141.657 247.831L143.215 271.019L137.297 271.418L134.725 233.111Z" fill="#231F20"/>
<path d="M167.087 234.956L166.982 234.984L169.159 253.323L173.402 252.294L167.087 234.956ZM161.34 230.247L171.191 227.859L184.858 264.056L178.306 265.644L175.303 257.604L169.801 258.94L170.862 267.448L165.15 268.834L161.34 230.247Z" fill="#231F20"/>
<path d="M191.75 238.951L192.296 238.721C194.923 237.598 195.916 235.942 194.097 231.68C191.917 226.571 189.868 227.27 187.735 228.177L187.241 228.391L191.75 238.951ZM178.416 225.709L184.861 222.956C192.153 219.845 197.222 221.141 200.481 228.777C203.193 235.126 202.531 240.448 196.483 243.032L193.902 244.134L199.935 258.268L193.489 261.02L178.416 225.709Z" fill="#231F20"/>
<path d="M213.068 227.912L213.566 227.598C215.975 226.058 216.684 224.261 214.188 220.355C211.202 215.673 209.298 216.698 207.341 217.944L206.889 218.232L213.068 227.912ZM197.746 217.033L203.653 213.262C210.33 208.998 215.544 209.446 220.011 216.446C223.727 222.264 223.949 227.62 218.401 231.162L216.039 232.673L224.306 245.623L218.395 249.395L197.746 217.033Z" fill="#231F20"/>
<path d="M215.363 205.243L227.247 194.742L231.175 199.184L224.547 205.045L231.049 212.398L235.936 208.076L240.078 212.761L235.191 217.086L242.118 224.921L249.027 218.812L252.957 223.258L240.797 234.01L215.363 205.243Z" fill="#231F20"/>
<path d="M229.453 192.552L233.78 187.24L253.551 195.078L253.617 194.995L237.902 182.184L241.445 177.84L272.631 202.096L269.188 206.317L245.014 197.444L244.946 197.526L262.961 212.211L259.215 216.807L229.453 192.552Z" fill="#231F20"/>
</svg>
