<svg id="Layer_2" data-name="Layer 2" xmlns="http://www.w3.org/2000/svg" xmlns:xlink="http://www.w3.org/1999/xlink" viewBox="0 0 721.81 625.1"><defs><style>.cls-1,.cls-2{fill:none;}.cls-2,.cls-3{clip-path:url(#clip-path);}.cls-4{fill:#14403c;}</style><clipPath id="clip-path"><rect class="cls-1" width="721.81" height="625.1"/></clipPath></defs><title>nettverksdagenesvg</title><g id="Logo_NVD" data-name="Logo NVD"><g class="cls-3"><g class="cls-3"><path class="cls-4" d="M449.71,381.84A23.21,23.21,0,1,1,426.5,405a23.21,23.21,0,0,1,23.21-23.2"/><path class="cls-4" d="M239.64,169.82a38,38,0,1,1-38,38,38,38,0,0,1,38-38"/><path class="cls-4" d="M541.35,0,721.81,312.55,541.35,625.1H180.45l-36.84-63.8h0l92.23-284.95c1.27.06,2.52.1,3.8.1a68.36,68.36,0,0,0,26.8-5.43L404.33,399.5a45.81,45.81,0,1,0,91.29,5.41A45.62,45.62,0,0,0,483.7,374.1l26.87-141v0A19,19,0,0,0,527,214.22l44.49-30.88-9.63-37.45-15.36,3.2,6.78,31.34-31.22,20.33a13.13,13.13,0,0,0-9.81-6.67s-6.63-2.58-13.75,3.18l-13.21-20.93L500.56,151l-13.85-8.59L468,178.87,490,208.11a19,19,0,0,0,5,20l-45.22,131a45.5,45.5,0,0,0-21.43,5.32L307.57,217.84a69.7,69.7,0,0,0,.73-10.07,68.66,68.66,0,1,0-128.89,33L60.88,418,0,312.55,180.46,0Z"/></g></g></g></svg>