<svg id="Layer_1" data-name="Layer 1" xmlns="http://www.w3.org/2000/svg" viewBox="0 0 1118.89 311.74"><defs><style>.cls-1{fill:#f5f5f6;}.cls-2{fill:#14403c;}</style></defs><title>nvdbackground</title><path class="cls-1" d="M107.75,158.56c-3-20.28,3.15-48.34,18.75-53.83,11.48-4,16.2,8.3,39.15,11.42,25.73,3.5,38.9-9.43,47.3-1.63s2,27.33-.81,35.88c-3.54,10.71-13.83,41.82-43.23,48.94-15.95,3.86-36.84.48-49.74-13.87C110.48,175.81,108.68,164.83,107.75,158.56Z" transform="translate(-90.79 -73.19)"/><path class="cls-2" d="M113,152c-.77,0-12.62-.36-19-9-4.26-5.77-3.56-13.26-2-28,1.34-12.64,2-19,5-24,6.09-10.27,20.35-20.86,34-17,12,3.4,17.07,16.15,19,21a41.27,41.27,0,0,1,1,28c-5.19,15.47-18.31,22.11-24,25C123,150,118.82,152.08,113,152Z" transform="translate(-90.79 -73.19)"/><path class="cls-2" d="M1209,248c5.18-21-20.84-24.92-34.12-41.2a158.69,158.69,0,0,0-47.34-39c-76.12-40.4-95.22,11-235.73-2.78-19.69-1.93-114.69-1.3-145.81,10-9.37,3.39-27.5,16.76-49.09,59.64-18.43,36.6-21.61,91.92,7.42,121.58,32,32.71,97.55,33.84,158.71,21.35,69.37-14.17,63.54-45,129-53.83,48.7-6.54,58.67,1.91,110.45-8.35C1141.6,307.64,1201.58,278.06,1209,248Z" transform="translate(-90.79 -73.19)"/></svg>